<?xml version="1.0" encoding="UTF-8"?>
<svg id="Layer_1" xmlns="http://www.w3.org/2000/svg" version="1.1" viewBox="0 0 312 210">
  <!-- Generator: Adobe Illustrator 29.5.1, SVG Export Plug-In . SVG Version: 2.1.0 Build 141)  -->
  <defs>
    <style>
      .st0 {
        fill: #231f20;
      }
    </style>
  </defs>
  <g>
    <path d="M207.74,68.85h0c-.54-1.2-.93-3.17.24-6.8.22-.63.47-1.31.74-2.02,0,0,0,0,0,0h0c2.23-5.87,5.84-13.81,7.31-9.7.42,3.49-5.66,23.75-8.3,18.53ZM221.36,55.2c.06-1.57,0-3.16-.23-4.73-.21-1.38-.56-2.75-1.16-4.01-.52-1.11-1.23-2.15-2.17-2.94-.94-.79-2.08-1.29-3.29-1.49-.13-.02-.27-.04-.41-.06-2.71.44-4.91,2.96-7.05,4.69-1.21,1.76.92,4.1-.55,6.03-1.24,2.22-2.18,4.6-2.86,7.05-.73,2.62-1.16,5.33-1.11,8.05.02,1.31.16,2.61.45,3.89.29,1.27.7,2.58,1.39,3.69.58.93,1.4,1.82,2.44,2.24,1.79.73,3.72.04,5.24-.97,1.13-.75,2.09-1.72,2.94-2.77.96-1.2,1.79-2.52,2.5-3.89.78-1.5,1.42-3.06,1.96-4.66.56-1.65,1-3.34,1.33-5.05.32-1.67.53-3.36.6-5.07Z"/>
    <path d="M205.21,37.1c-.11-.57-.2-1.1-.67-1.49-.46-.38-1.06-.51-1.64-.54-1.74-.1-3.54.48-5.16,1.04-3.97,1.35-16.15,5.6-17.04,5.95-2.51.86-4.54,1.54-7.44,2.28-3.37.82-2.75,3.43-.3,2.83,1.93-.62,2.17.47,1.33,2.41-.41.95-1.08,2.1-1.94,3.36,0,0,0,.01-.01.02-1.61,2.71-3.79,5.9-5.68,8.68-1.16,1.71-2.04,3.38-2.21,4.49-.14.94.03,1.62.57,2.04.04.03.08.06.12.09.04.02.08.04.12.06.06.04.12.07.19.1.01,0,.02,0,.03.01.06.03.11.04.16.05,1.17.36,6.43-.68,7.52-1.61.03-.02.04-.04.07-.05.01-.01.02-.02.02-.03.29-.29.5-.57.65-.85.01,0,.01-.02.02-.03.05-.12.09-.23.13-.34.02-.05.04-.1.06-.15.57-1.57,1.84-4.6,4.99-4.59.62.05,1.22.16,1.79.31.12.03.24.07.36.11.56.2,1.18.49,1.84.87.02.01.02.02.05.03.77.46,1.5.93,2.16,1.43,4.4,4.15,6.06,12.69,3.62,23.65-.08.36-.16.73-.25,1.1-.26,1.14-.55,2.32-.89,3.53l-1.24,4.23c-4.91,15.59-14.66,34.71-31.31,47.97-12.55,10.1-14.59,7.33-14.59,7.33-.33-.18-.54-.49-.57-.93v-.04c.01-.16.02-.31.02-.47.16-4.27-.21-6.19-2.25-7.37-1.6-.94-3.18-1.93-4.57-2.65-1.45-.76-2.68-1.2-3.46-.97-.2.06-.39.13-.56.21-.02,0-.03.02-.05.02-.1.05-.2.11-.3.17-.2.12-.37.27-.53.46-1.67,1.98-2.67,5.05-2.82,7.61-.18,2.98.59,6.02,1.86,8.71,1.55,3.27,4.19,5.97,7.75,6.93,4.35,1.15,8.98.17,13.04-1.55,7.64-3.25,14.17-8.72,19.65-14.88,5-5.62,9.22-11.91,12.88-18.47,2.55-4.56,4.95-9.29,6.9-14.15.11-.3.23-.58.34-.86,0,0,0-.02.02-.03.01-.03.02-.06.03-.08,1.35-3.49,2.5-6.79,3.48-9.89.28-.95.54-1.87.79-2.78,0-.02.02-.04.02-.06.58-1.75,1.07-3.44,1.5-5.09l1.31-5.78c.17-1.07.32-2.2.45-3.43,0-.02,0-.04,0-.05.37-3.11.47-5.99.35-8.61-.32-11.35-4.11-20.19-13.58-20.85-.82-.13-2.61-.12-3.34-.12.01-.02.02-.04.03-.05.83-1.48,1.86-3.06,2.75-4.37h.01c.54-.69,1-1.27,1.3-1.65,1.15-1.45,2.21-1.72,3.42-2.34.67-.34,1.39-.58,2.09-.87,1.32-.52,2.64-1.03,3.96-1.55,3.27-1.25,6.55-2.49,9.81-3.75.55-.2,1.1-.41,1.64-.65,2.56-.99,1.57-2.04,1.2-4.06Z"/>
    <g>
      <path class="st0" d="M72.2,130.82c-.05-2.32-.59-4.15-1.6-5.42-.3-.38-.67-.71-1.09-.96-1.14-.7-2.61-.87-3.94-.48-3.87,1.16-5.39,6.46-6.5,10.32l-.18.62c-1.34,4.59-3.17,10.88-1.06,16.21.18.44.36.88.61,1.28l.05.08c1.2,1.82,2.35,2.7,3.63,2.76.05,0,.09,0,.14,0,1.33,0,2.71-.91,4.24-2.79,3.52-4.81,4.7-11.16,5.28-15.51.25-1.84.49-4,.45-6.12ZM63.12,148.69c-.3.19-.55.23-.73.12-.22-.13-.95-.8-.89-4.07.03-1.39.37-3.22.65-4.68l.09-.51c1.19-6.1,2.97-10.05,4.51-10.05h.02s.04,0,.09,0c.11,0,.22.02.32.07.72.38.79.65.79.72.47,9.63-2.57,16.98-4.86,18.38Z"/>
      <path class="st0" d="M56.14,129.97c-2.2-1.14-5.95-1.1-9.34,2.72-.1-.46-.19-.85-.27-1.16l-.02-.07c-.01-.07-.03-.13-.05-.17-.42-1.38-1.17-1.54-1.58-1.5-1.1.1-1.94,1.67-2.1,3.14-.05.51-.08,1.05-.08,1.69,0,3.84-.34,7.51-1.12,11.91v.07c-.49,2.73-.99,5.56-1.25,8.6l-.07.74c-.21,2.07-.56,5.55,1.4,6.12.16.05.32.07.48.07.31,0,.6-.09.87-.26,1.13-.73,1.58-2.79,1.89-4.92v-.06c.03-.12.04-.22.06-.31.18-1.07.33-2.05.48-3l.02-.13c.36-2.38.68-4.43,1.28-7.02.13-.56.25-1.12.38-1.69l.05-.25c.14-.62.27-1.25.42-1.85.94-3.36,1.81-5.69,2.58-6.9.85-1.21,1.66-1.94,2.23-2.02,1.03.25,1.94.39,2.71.4.05,0,.09,0,.14,0,2.04,0,2.57-.87,2.71-1.39.24-.95-.49-2.06-1.82-2.76Z"/>
      <path class="st0" d="M37.45,143.73c-.14-.64-.34-1.25-.58-1.83h0c-.96-2.3-2.78-3.99-4.86-4.54-.87-.23-1.74-.24-2.54-.05-1.38.09-3.42.7-5.37,3.06-.09-.34-.17-.62-.24-.85l-.02-.05c-.01-.06-.03-.11-.05-.15-.43-1.24-1.11-1.34-1.51-1.29-.99.13-1.68,1.56-1.77,2.87-.03.44-.03.91,0,1.47v.24c-.01.14,0,.34.01.62.02.94,0,1.77-.02,2.49-1.97,8.26-6.23,39.43-6.15,40.69.1,1.47.78,3.01,1.9,3.1.03,0,.07,0,.1,0,1.07,0,1.88-1.27,2.53-4l.09-.11-.03-.17c.26-1.42,1.81-12.49,2.82-20,.42.59.92,1.05,1.5,1.38,1.22.7,2.86.77,4.38.2,1.16-.43,2.26-1.2,3.47-2.41,3.95-3.96,6.31-9.65,6.63-16.02.09-1.8-.01-3.32-.31-4.66ZM34.05,149.76c-.28,1.2-.64,2.35-1.03,3.63l-.04.12c-.51,1.63-1.19,3.21-2.02,4.69-.49.88-1.03,1.69-1.59,2.4-.84,1.06-1.95,2.26-3.2,2.26h-.05c-1.15-.02-1.65-1.47-1.82-2.09-.59-2.29-.22-4.9.22-7.16.23-1.16.51-2.31.87-3.53.34-1.16.76-2.39,1.27-3.78.55-1.46,1.68-4.49,3.4-5.24.27-.12.53-.17.81-.17.3,0,.61.07.95.21.04.02.08.03.16.07,2.18,1.39,2.94,4.52,2.06,8.58Z"/>
      <path class="st0" d="M280.09,60.17c-.91-.96-1.99-.44-2.56-.17-.44.19-19.89,7.2-36.42,13.14l-9.2,3.19s-.54.19-.6.2c-5.98,2.06-50.84,17.11-52.57,17.67l-2.74.92c-.54.18-1.09.37-1.62.56-.77.26-1.55.52-2.32.79l-1.63.57c-3.31,1.19-7.21,2.64-11.04,4.42-.14.07-.34.15-.55.24l-.3.13c-.38.16-.77.33-1.06.46-.21.12-.42.24-.62.34-.05.02-.1.05-.14.06-.05.02-.1.04-.14.07l-.21.11c-.91.41-1.78.64-2.65.7-1.47.08-3.23-.49-4.23-1.38-.49-.36-.9-.82,0-2.09.7-.65,1.81-.89,2.97-.63l.25.06c1.31.29,2.34.52,2.76,1.61l.47,1.23.62-1.16c.09-.16.15-.27.21-.35.17-.27.21-.37.17-.84-.16-2.35-2.91-4.35-5.99-4.35-.07,0-.15-.02-.17,0-.5-.02-.98.04-1.41.16-.15.04-.3.08-.45.14-2.4.92-4.85,4.99-7.28,12.1-.51,1.59-2.16,7.12-2.14,11.4,0,.1,0,.19,0,.27v.13c.03.86.11,1.62.24,2.3-.31.43-.6.82-.88,1.16-1.01,1.21-1.95,2.05-2.8,2.49-2.12.98-2.65-.05-2.85-.44-.05-.11-.11-.22-.13-.28l-.03-.08c-.28-.78-.23-1.62-.15-2.56.46-4.77,1.79-9.07,2.77-12.24l.11-.35c.14-.45.27-.88.39-1.27.39-1.32,5.52-16.05,6.33-18.36l10.94-3.66c1.92-.66,2.47-1.86,2.16-2.74-.3-.9-1.52-1.51-3.21-.94t-.99.33c-1.54.53-5.47,1.86-7.41,2.51l2.69-7.48c.23-.67.16-1.4-.2-2.01-.36-.61-.97-1.03-1.67-1.15-1.21-.21-2.36.51-2.71,1.66-.06.19-.25.77-.52,1.58l-.5,1.53c-.92,2.81-1.95,5.94-2.48,7.64l-8.88,3.02c-.89.29-1.49.9-1.65,1.68-.13.65.08,1.31.55,1.73.5.45,1.22.55,1.97.3.25-.08,1.41-.47,2.78-.93,1.38-.46,2.97-.99,4-1.34-1.62,4.93-6.41,19.25-9.37,25.87-2.17,4.7-4.34,8.43-6.45,11.09-.77.92-1.78,2.04-2.78,2.57-1.13.53-1.96.55-2.47.08-1.77-1.64-.64-8.51,1.47-14.21,1.8-4.83,3.74-7.48,4.75-7.63,3.89.93,4.71-.29,4.88-.86.31-1.04-.65-2.25-2.25-2.8-1.1-.39-6.81-1.8-10.91,8.42-1.42,4.22-2.36,7.75-2.94,11.1-.95,3.02-1.89,4.66-2.89,5.89-.17.21-.36.42-.55.64-.04.04-.08.09-.12.13-.15.17-.32.33-.48.5-.08.08-.16.16-.24.25-1.41,1.39-3.05,2.66-4.24,3.45-.49.31-.92.56-1.22.72-1.05.49-1.85.54-2.38.15-.92-.68-1.24-2.86-.86-5.84.82-.52,1.61-1.05,2.4-1.59,1.16-.81,2.18-1.56,3.02-2.25,1.1-.88,1.97-1.69,2.6-2.4.42-.44.79-.86,1.12-1.28l.05-.07c2.72-3.6,3.68-8.48,2.14-10.89-.1-.15-.24-.3-.41-.48-.75-.72-1.82-1.13-2.96-1.11-1.27.03-2.52.39-3.61,1.05-2.67,1.6-4.17,4.36-5.19,6.58-.61,1.36-1.05,2.82-1.44,4.11l-.14.47c-.49,1.64-.89,3.16-1.23,4.62-.02.07-.03.14-.05.21-.11.46-.2.94-.29,1.4l-.05.23c-.01.08-.03.17-.05.26-.21,1.08-.37,2.03-.48,2.83-2.42,2.12-4.49,5.35-5.47,7,.02-.17.04-.35.07-.53.11-.84.22-1.71.3-2.21.01-.1.03-.18.02-.24.13-.87.24-1.54.28-1.83.18-1,.43-2.37.7-3.87.77-4.23,1.74-9.48,1.78-10.2h-.23s.24-.07.24-.07c.07-.78.12-1.39.13-1.73.02-.54-.08-1-.32-1.37-.39-.62-1.24-.98-2.02-.85-.65.1-1.13.52-1.29,1.12-.11.44-.28,1.45-.55,3.29l-.04.32c-.03.24-.07.49-.11.75-.4,2.83-2.39,11.57-3.27,14.38-.75,2.4-1.67,4.77-3.35,5.79-.31.19-.56.23-.74.12-.82-.47-.86-2.25-.88-3.01-.05-2.28.29-4.58.63-6.79.08-.52.15-1.03.23-1.54.23-1.65.45-3,.71-4.24.14-.7.3-1.41.47-2.09.05-.21.14-.44.23-.69.18-.49.36-.99.37-1.45.43-1.62-.38-2.95-1.38-3.25-.91-.27-2.17.25-2.94,2.58-.03.1-.06.2-.08.3l-.18.62c-1.14,3.93-3.92,16.37-1.73,21.89.19.46.36.88.61,1.27l.04.07c.6,1.05,1.79,2.26,3.31,2.53,1.16.2,2.25-.36,3.15-.95.72-.47,1.31-.91,1.82-1.35-1.03,1.94-3.3,4.32-5.15,6.26-.48.5-.94.98-1.35,1.43-.62.68-1.25,1.35-1.89,2.02-1.57,1.67-3.2,3.39-4.69,5.24-3.18,3.95-4.28,8.07-3.26,12.24.71,2.9,2.56,6.01,5.63,6.01.16,0,.33,0,.5-.03.3-.03.6-.1.89-.18,2.96-.92,4.68-3.82,5.86-6.24,1.32-2.72,2.31-5.82,3.11-9.76.22-1.1.43-2.2.64-3.31.3-1.63.62-3.32.99-4.96l.2-.85c.01-.07.03-.15.06-.26l.02-.1s.02-.08.03-.13l.03-.12c.12-.52.56-2.37,1.14-4.51.21-.72.42-1.38.64-1.97.08-.15.16-.32.27-.57l.17-.4c.03-.08.06-.15.09-.23.72-1.74,1.86-3.64,3.38-5.65.52-.68,1.08-1.37,1.73-2.12.33-.38.62-.7.83-.93.38,1.07.92,1.97,1.64,2.69l.08.08c1.23,1.01,2.37,1.54,3.6,1.64,1.52.11,3.13-.49,4.45-1.72l.05-.04c.76-.67,3.34-3.62,4.13-4.48,1.36-1.5,3.07-1.78,4.18-1.78.11.08.22.18.34.29l.08.07c.96.86,2.29,1.87,4.03,2.01,1.53.1,3.13-.49,4.45-1.72l.05-.04c.94-.83,1.9-2.09,2.85-3.35,1.6-2.11,3.4-4.51,4.56-3.69.38.26.77.61,1.18.99.07.08.13.14.2.21l.3.26c.33.3.71.63,1.01.76.9.59,1.79.91,2.72.99,1.55.1,3.13-.49,4.45-1.73l.04-.04c.86-.75,1.65-1.69,2.35-2.51l.17-.2c.16-.19.31-.37.47-.54.38.4.8.73,1.29.98l.07.03c.59.28,1.23.44,1.94.47h.23c4.22-.01,7.49-3.94,9.06-6.28,2.47-3.67,3.61-7.9,4.33-11.17.07-.25.13-.51.21-.76.32-1.09.94-2.12,1.9-3.15.65-.36,1.36-.72,2.11-1.06,3.47-1.59,7.19-2.78,10.78-3.92l.91-.29c.78-.25,1.57-.5,2.36-.76.58-.21,1.16-.41,1.74-.62l.07-.03c.88-.31,1.86-.63,2.99-.99l.09-.03c.77-.25,83.03-27.79,86.03-28.9.56-.21,1.12-.42,1.67-.64l.33-.13c2.87-1.11,5.57-2.17,8.44-2.19,2.78.14,4.26-.28,4.72-1.32.51-1.14-.26-2.58-2.64-4.98ZM103.86,116.48l-.18-.15.19.14c.49-.61,1.28-1.33,2.3-1.33.14,0,.28.01.41.05.17.03.24.11.28.2.06.14.12.42.04,1-.1,1.87-1.23,5.8-4.86,8.61l-.05.04c-.91.76-1.9,1.43-2.8,2.01,1.15-4.3,3.04-8.59,4.66-10.57ZM75.12,173.26c-.34.41-.84.9-1.28.76-.62-.16-1.27-1.36-1.59-2.9-.58-4.21,4.15-9.53,7.61-13.42l.2-.23c.4-.45.79-.89,1.15-1.3.48,3.5-2.99,13.39-6.1,17.09ZM146.21,122.77c-.71.15-1.25-.02-1.69-.52-1.78-2.04-1.16-8.09,1.58-15.4.43-1.07.73-1.55.89-1.76.05.09.11.18.15.26.71,1.22,2.18,3.73,7.96,3.06-2.66,9.12-6.37,13.78-8.89,14.36Z"/>
    </g>
    <path d="M263.95,26.53c-.61-1.69-.77-3.29-3.05-3.7h-.02s-.07,0-.11-.02c-.23-.02-.59,0-1.04.1-.02,0-.04.02-.06.02-1.24.36-2.46.8-3.66,1.22-1.72.6-3.43,1.22-5.15,1.83-1.9.67-3.82,1.33-5.74,1.96-1.03.34-2.07.67-3.1,1-.98.31-1.98.72-3.01.83-2.46.26-3.86-1.65-2.84-7.96-3.3-3.61-6.1.76-7.63,4.9-.12.32-.25.65-.36,1.01-.04.13-.08.27-.13.4-.4,1.42-.67,3.06-.72,4.67-.11,3.44.81,6.75,3.69,7.65.63.21,1.37.28,2.21.22.17-.01.32-.03.48-.05,7.83-.8,12.68-5,13.14-3.9.02.05.03.11.04.18,0,0,0,.01,0,.02,0,.62-.69,1.86-1.43,3.01-2.11,3.13-4.81,7.06-6.37,9.25-2.62,3.68-5.44,7.57-7.46,10.36-.93,1.18-1.86,2.44-2.8,3.84-.01.01-.02.03-.02.03-.11.17-.22.32-.33.49-2.65,3.89-.93,5,1.34,4.31h.02c.07-.02.13-.05.21-.07,0,0,.02,0,.04,0,.7-.23,1.27-.57,1.78-.98.37-.27.74-.6,1.06-.96,1.01-.99,1.96-1.97,3.74-2.13.46-.02.91.01,1.37.08.37.05.74.12,1.11.23,1,.36,2.01.8,2.98,1.43.02.01.04.02.06.04.02,0,.03.02.04.03.69.47,1.35,1.04,1.97,1.76.5.58.98,1.27,1.4,2.09,1.4,2.09,1.92,5.99,1.92,5.99.02.09.04.18.05.27,0,.03.01.05.02.07.05.25.08.5.11.75.02.08.03.17.04.25,0,.06.02.12.02.18.45,5.25.11,10.61-1.23,15.72-2.01,7.63-6.86,15.75-15.67,16.13-.02,0-.04,0-.05,0-1.2.1-2.38-.02-3.47-.51-.02,0-.03-.01-.05-.02-.2-.09-.39-.19-.58-.3-2.03-1.21-3.06-3.5-3.61-5.7-.51-2.04-.65-4.16-.7-6.27,0-.61.01-1.21.02-1.82.04-2.04.08-4.06-.03-5.86v-.07c-.02-1.6-.16-2.81-.68-3.84-.17-.33-.37-.64-.62-.93-.02-.01-.03-.02-.04-.03-.01-.02-.02-.03-.04-.05-.16-.18-.34-.36-.54-.54-.01-.02-.02-.03-.03-.03-1.08-.87-3.1-1.94-4.53-2.58-.1-.05-.19-.09-.28-.12-.36-.16-.72-.31-1.12-.48-.14-.06-1.47-.53-2.5.34-.31.26-.6.64-.81,1.2-.56,1.83-.77,5.26-.9,7.32,0,.01,0,.02,0,.03v.03c-.11,2.41-.08,5.16.18,8.06.01.06.01.11.02.17.02.23.05.44.07.65.11,1,.26,2,.45,2.98.13.78.31,1.54.52,2.27.04.12.07.25.1.38.06.13.1.27.14.41.09.29.2.58.32.87.01.03.03.05.04.08,1.37,3.4,3.69,6.11,6.66,8.09,4.07,2.95,9.43,4.69,15.19,3.65.03,0,.06,0,.09-.02.11-.02.22-.04.34-.06.4-.08.81-.18,1.21-.28.02,0,.03,0,.04-.01,7.55-2.01,14.76-8.27,18.33-16.32.01-.02.02-.04.03-.06.79-1.81,1.41-3.72,1.8-5.68,1.83-7.47,1.3-14.05-.5-19.37,0,0,0,0,0-.02-.11-.26-1.75-4.31-3.4-6.81-.09-.14-.19-.28-.3-.41-2.97-4.1-6.72-6.59-9.95-7.03h0s.02-.04.04-.07c.68-1.05,9.52-14.56,14.09-21.66,1.02-1.59,1.83-2.86,2.29-3.59,2.42-3.92,3.18-4.78,4.4-5.47.08-.05.17-.09.25-.13.35-.18.68-.38.97-.61.79-.69.77-.96.28-2.32Z"/>
  </g>
  <g>
    <path class="st0" d="M198.37,143.61c1.81,0,3.3.66,4.58,1.75.15.15.17.38.02.53-.28.3-.57.58-.85.88-.15.17-.3.15-.49-.02-.89-.77-2.05-1.28-3.2-1.28-2.68,0-4.73,2.26-4.73,4.9s2.05,4.88,4.73,4.88c1.56,0,2.64-.56,2.83-.64v-2.11h-1.85c-.21,0-.36-.15-.36-.34v-1.09c0-.21.15-.36.36-.36h3.43c.19,0,.34.17.34.36,0,1.51.02,3.05.02,4.56,0,.09-.08.24-.15.3,0,0-1.94,1.24-4.67,1.24-3.75,0-6.78-3-6.78-6.77s3.03-6.8,6.78-6.8Z"/>
    <path class="st0" d="M208.98,144.16c0-.19.15-.36.36-.36h5.13c2.26,0,4.11,1.79,4.11,4.03,0,1.73-1.15,3.17-2.79,3.82l2.58,4.79c.13.24,0,.55-.32.55h-1.47c-.15,0-.26-.09-.3-.17l-2.51-4.99h-2.85v4.8c0,.19-.17.36-.36.36h-1.23c-.21,0-.36-.17-.36-.36v-12.47ZM214.31,150.21c1.22,0,2.3-1.04,2.3-2.34,0-1.22-1.07-2.24-2.3-2.24h-3.35v4.58h3.35Z"/>
    <path class="st0" d="M222.56,156.5l5.79-12.68c.06-.11.23-.21.32-.21h.19c.09,0,.26.1.32.21l5.75,12.68c.11.24-.04.49-.32.49h-1.19c-.23,0-.36-.11-.43-.28l-1.17-2.58h-6.16c-.38.87-.77,1.71-1.15,2.58-.06.13-.21.28-.43.28h-1.19c-.28,0-.43-.25-.32-.49ZM231.1,152.5l-2.32-5.16h-.09l-2.3,5.16h4.71Z"/>
    <path class="st0" d="M239.63,144.16c0-.19.15-.36.36-.36h4.3c2.32,0,4.22,1.88,4.22,4.16s-1.9,4.24-4.2,4.24h-2.73v4.43c0,.19-.17.36-.36.36h-1.23c-.21,0-.36-.17-.36-.36v-12.47ZM244.17,150.36c1.3,0,2.39-1.06,2.39-2.41,0-1.28-1.09-2.26-2.39-2.26h-2.6v4.67h2.6Z"/>
    <path class="st0" d="M253.65,144.16c0-.19.17-.36.36-.36h1.24c.21,0,.36.17.36.36v5.26h6.9v-5.26c0-.19.15-.36.36-.36h1.24c.19,0,.36.17.36.36v12.47c0,.19-.17.36-.36.36h-1.24c-.21,0-.36-.17-.36-.36v-5.45h-6.9v5.45c0,.19-.15.36-.36.36h-1.24c-.19,0-.36-.17-.36-.36v-12.47Z"/>
    <path class="st0" d="M270.94,144.16c0-.19.17-.36.36-.36h1.24c.19,0,.36.17.36.36v12.47c0,.19-.17.36-.36.36h-1.24c-.19,0-.36-.17-.36-.36v-12.47Z"/>
    <path class="st0" d="M285.22,143.61c1.9,0,3.28.64,4.56,1.75.17.15.17.38.02.53l-.83.85c-.13.17-.3.17-.47,0-.88-.77-2.09-1.26-3.26-1.26-2.69,0-4.73,2.26-4.73,4.9s2.05,4.88,4.75,4.88c1.38,0,2.34-.55,3.24-1.24.17-.13.34-.11.45-.02l.87.85c.15.13.11.38-.02.51-1.28,1.24-2.9,1.83-4.58,1.83-3.77,0-6.8-3-6.8-6.77s3.03-6.8,6.8-6.8Z"/>
    <path class="st0" d="M192.55,162.27c0-.19.15-.36.34-.36h4.33c3.64,0,6.62,2.96,6.62,6.58s-2.98,6.61-6.62,6.61h-4.33c-.19,0-.34-.17-.34-.36v-12.47ZM196.96,173.32c2.77,0,4.79-2.04,4.79-4.82s-2.02-4.79-4.79-4.79h-2.49v9.61h2.49Z"/>
    <path class="st0" d="M209.38,162.27c0-.19.15-.36.36-.36h7.54c.21,0,.36.17.36.36v1.05c0,.19-.15.36-.36.36h-5.96v3.85h5.03c.19,0,.36.17.36.36v1.05c0,.21-.17.36-.36.36h-5.03v4.05h5.96c.21,0,.36.17.36.36v1.04c0,.19-.15.36-.36.36h-7.54c-.21,0-.36-.17-.36-.36v-12.47Z"/>
    <path class="st0" d="M222.45,173.2c.17-.25.32-.53.49-.77.17-.24.43-.32.64-.15.11.09,1.56,1.3,3.02,1.3,1.3,0,2.13-.79,2.13-1.75,0-1.13-.98-1.85-2.85-2.62-1.92-.81-3.43-1.81-3.43-3.99,0-1.47,1.13-3.49,4.13-3.49,1.88,0,3.3.98,3.49,1.11.15.09.3.36.11.64-.15.23-.32.49-.47.72-.15.24-.4.36-.66.19-.13-.07-1.45-.94-2.54-.94-1.58,0-2.13,1-2.13,1.7,0,1.07.83,1.73,2.39,2.38,2.19.88,4.05,1.92,4.05,4.22,0,1.96-1.75,3.56-4.2,3.56-2.3,0-3.75-1.21-4.05-1.49-.17-.15-.3-.28-.11-.6Z"/>
    <path class="st0" d="M236.24,162.27c0-.19.17-.36.36-.36h1.24c.19,0,.36.17.36.36v12.47c0,.19-.17.36-.36.36h-1.24c-.19,0-.36-.17-.36-.36v-12.47Z"/>
    <path class="st0" d="M250.5,161.73c1.81,0,3.3.66,4.58,1.75.15.15.17.38.02.53-.28.3-.57.58-.85.89-.15.17-.3.15-.49-.02-.89-.77-2.05-1.28-3.2-1.28-2.68,0-4.73,2.26-4.73,4.9s2.05,4.88,4.73,4.88c1.56,0,2.64-.57,2.83-.64v-2.11h-1.85c-.21,0-.36-.15-.36-.34v-1.09c0-.21.15-.36.36-.36h3.43c.19,0,.34.17.34.36,0,1.51.02,3.05.02,4.56,0,.09-.08.24-.15.3,0,0-1.94,1.24-4.67,1.24-3.75,0-6.78-3-6.78-6.77s3.03-6.8,6.78-6.8Z"/>
    <path class="st0" d="M261.11,162.07c0-.19.17-.34.36-.34h.47l8.18,9.46h.02v-8.91c0-.19.15-.36.36-.36h1.21c.19,0,.36.17.36.36v12.68c0,.19-.17.34-.36.34h-.49l-8.18-9.72h-.02v9.18c0,.19-.15.36-.36.36h-1.19c-.19,0-.36-.17-.36-.36v-12.68Z"/>
  </g>
</svg>